<svg xmlns="http://www.w3.org/2000/svg" viewBox="0 0 28 22">
  <style>
    circle { fill: #1a1a2e; }
    @media (prefers-color-scheme: dark) {
      circle { fill: #e0e0ff; }
    }
  </style>
  <!-- Bar 1: solid -->
  <circle cx="2.0" cy="13.2" r="0.95" opacity="0.95"/>
  <circle cx="4.0" cy="13.0" r="0.85" opacity="0.90"/>
  <circle cx="6.0" cy="13.3" r="0.90" opacity="0.92"/>
  <circle cx="2.1" cy="15.1" r="0.80" opacity="0.88"/>
  <circle cx="4.0" cy="15.0" r="0.95" opacity="0.95"/>
  <circle cx="5.9" cy="15.2" r="0.85" opacity="0.90"/>
  <circle cx="2.0" cy="17.0" r="0.90" opacity="0.92"/>
  <circle cx="4.1" cy="17.1" r="0.85" opacity="0.95"/>
  <circle cx="6.0" cy="16.9" r="0.95" opacity="0.88"/>
  <circle cx="1.9" cy="19.0" r="0.85" opacity="0.90"/>
  <circle cx="4.0" cy="19.1" r="0.90" opacity="0.95"/>
  <circle cx="6.1" cy="19.0" r="0.95" opacity="0.92"/>
  <!-- Bar 2: mostly formed -->
  <circle cx="9.0" cy="9.1" r="0.70" opacity="0.68"/>
  <circle cx="13.0" cy="9.3" r="0.65" opacity="0.65"/>
  <circle cx="9.1" cy="11.0" r="0.80" opacity="0.75"/>
  <circle cx="11.0" cy="11.2" r="0.75" opacity="0.72"/>
  <circle cx="13.0" cy="11.0" r="0.85" opacity="0.80"/>
  <circle cx="8.9" cy="13.1" r="0.85" opacity="0.78"/>
  <circle cx="11.1" cy="13.0" r="0.90" opacity="0.82"/>
  <circle cx="9.0" cy="15.0" r="0.80" opacity="0.80"/>
  <circle cx="11.0" cy="15.1" r="0.85" opacity="0.85"/>
  <circle cx="12.9" cy="14.9" r="0.75" opacity="0.78"/>
  <circle cx="9.1" cy="17.0" r="0.90" opacity="0.82"/>
  <circle cx="11.0" cy="17.1" r="0.80" opacity="0.85"/>
  <circle cx="13.0" cy="17.0" r="0.85" opacity="0.80"/>
  <circle cx="9.0" cy="19.0" r="0.85" opacity="0.85"/>
  <circle cx="10.9" cy="19.1" r="0.90" opacity="0.82"/>
  <circle cx="13.1" cy="19.0" r="0.80" opacity="0.78"/>
  <!-- Bar 3: partially dissolving -->
  <circle cx="18.0" cy="5.3" r="0.60" opacity="0.52"/>
  <circle cx="16.1" cy="5.1" r="0.50" opacity="0.45"/>
  <circle cx="17.9" cy="7.2" r="0.65" opacity="0.58"/>
  <circle cx="20.1" cy="7.0" r="0.55" opacity="0.50"/>
  <circle cx="16.0" cy="9.0" r="0.60" opacity="0.55"/>
  <circle cx="18.0" cy="9.1" r="0.70" opacity="0.62"/>
  <circle cx="20.0" cy="9.2" r="0.55" opacity="0.48"/>
  <circle cx="16.1" cy="11.0" r="0.75" opacity="0.65"/>
  <circle cx="18.1" cy="11.1" r="0.65" opacity="0.60"/>
  <circle cx="20.0" cy="11.2" r="0.60" opacity="0.55"/>
  <circle cx="16.0" cy="13.0" r="0.80" opacity="0.68"/>
  <circle cx="18.1" cy="13.1" r="0.70" opacity="0.72"/>
  <circle cx="20.0" cy="12.9" r="0.65" opacity="0.58"/>
  <circle cx="16.0" cy="15.0" r="0.75" opacity="0.70"/>
  <circle cx="18.0" cy="15.2" r="0.80" opacity="0.65"/>
  <circle cx="20.0" cy="14.9" r="0.70" opacity="0.58"/>
  <circle cx="16.1" cy="17.0" r="0.80" opacity="0.68"/>
  <circle cx="18.0" cy="17.1" r="0.75" opacity="0.65"/>
  <circle cx="20.1" cy="17.0" r="0.70" opacity="0.60"/>
  <circle cx="16.1" cy="19.0" r="0.80" opacity="0.72"/>
  <circle cx="18.0" cy="19.0" r="0.75" opacity="0.65"/>
  <circle cx="19.9" cy="19.1" r="0.70" opacity="0.60"/>
  <!-- Bar 4: faint but recognizable -->
  <circle cx="25.0" cy="1.3" r="0.50" opacity="0.25"/>
  <circle cx="24.9" cy="3.2" r="0.55" opacity="0.30"/>
  <circle cx="23.1" cy="3.0" r="0.45" opacity="0.22"/>
  <circle cx="27.1" cy="5.1" r="0.45" opacity="0.25"/>
  <circle cx="23.0" cy="7.0" r="0.55" opacity="0.32"/>
  <circle cx="25.0" cy="7.1" r="0.50" opacity="0.28"/>
  <circle cx="25.1" cy="9.2" r="0.50" opacity="0.30"/>
  <circle cx="27.0" cy="9.0" r="0.45" opacity="0.25"/>
  <circle cx="23.0" cy="11.0" r="0.55" opacity="0.35"/>
  <circle cx="25.0" cy="11.0" r="0.50" opacity="0.32"/>
  <circle cx="23.1" cy="13.1" r="0.60" opacity="0.38"/>
  <circle cx="25.0" cy="13.0" r="0.50" opacity="0.32"/>
  <circle cx="27.0" cy="13.2" r="0.45" opacity="0.28"/>
  <circle cx="27.0" cy="15.0" r="0.50" opacity="0.30"/>
  <circle cx="23.0" cy="15.1" r="0.55" opacity="0.35"/>
  <circle cx="23.0" cy="17.0" r="0.60" opacity="0.40"/>
  <circle cx="25.1" cy="17.1" r="0.55" opacity="0.35"/>
  <circle cx="27.0" cy="17.1" r="0.50" opacity="0.30"/>
  <circle cx="23.0" cy="19.0" r="0.60" opacity="0.42"/>
  <circle cx="25.1" cy="19.1" r="0.65" opacity="0.38"/>
  <circle cx="27.0" cy="19.0" r="0.55" opacity="0.35"/>
</svg>
