<svg xmlns="http://www.w3.org/2000/svg" width="1200" height="630" viewBox="0 0 1200 630">
  <defs>
    <linearGradient id="bg" x1="0" y1="0" x2="1" y2="1">
      <stop offset="0%" stop-color="#0f0f23"/>
      <stop offset="100%" stop-color="#1a1a3e"/>
    </linearGradient>
    <linearGradient id="accent" x1="0" y1="0" x2="1" y2="0">
      <stop offset="0%" stop-color="#4a4abf"/>
      <stop offset="100%" stop-color="#6b6bf0"/>
    </linearGradient>
  </defs>

  <!-- Background -->
  <rect width="1200" height="630" fill="url(#bg)"/>

  <!-- Subtle grid pattern -->
  <g opacity="0.04" stroke="#ffffff" stroke-width="1">
    <line x1="0" y1="0" x2="0" y2="630" transform="translate(100,0)" />
    <line x1="0" y1="0" x2="0" y2="630" transform="translate(200,0)" />
    <line x1="0" y1="0" x2="0" y2="630" transform="translate(300,0)" />
    <line x1="0" y1="0" x2="0" y2="630" transform="translate(400,0)" />
    <line x1="0" y1="0" x2="0" y2="630" transform="translate(500,0)" />
    <line x1="0" y1="0" x2="0" y2="630" transform="translate(600,0)" />
    <line x1="0" y1="0" x2="0" y2="630" transform="translate(700,0)" />
    <line x1="0" y1="0" x2="0" y2="630" transform="translate(800,0)" />
    <line x1="0" y1="0" x2="0" y2="630" transform="translate(900,0)" />
    <line x1="0" y1="0" x2="0" y2="630" transform="translate(1000,0)" />
    <line x1="0" y1="0" x2="0" y2="630" transform="translate(1100,0)" />
    <line x1="0" y1="0" x2="1200" y2="0" transform="translate(0,100)" />
    <line x1="0" y1="0" x2="1200" y2="0" transform="translate(0,200)" />
    <line x1="0" y1="0" x2="1200" y2="0" transform="translate(0,300)" />
    <line x1="0" y1="0" x2="1200" y2="0" transform="translate(0,400)" />
    <line x1="0" y1="0" x2="1200" y2="0" transform="translate(0,500)" />
  </g>

  <!-- Accent line at top -->
  <rect x="0" y="0" width="1200" height="4" fill="url(#accent)"/>

  <!-- Camera lens icon (scaled up from 24x24 viewBox) -->
  <g transform="translate(80, 200) scale(5)" fill="#7b7bf0">
    <path fill-rule="evenodd" d="M 12 1 a 11 11 0 0 1 0 22 a 11 11 0 0 1 0 -22 Z M 12 3.5 a 8.5 8.5 0 0 0 0 17 a 8.5 8.5 0 0 0 0 -17 Z"/>
    <path opacity="0.5" d="M 12.21 8.01 L 13.66 4.17 A 8 8 0 0 1 19.94 11.03 L 15.35 9.82 Z"/>
    <path opacity="0.65" d="M 15.56 10.18 L 19.61 9.53 A 8 8 0 0 1 16.81 18.39 L 15.56 13.82 Z"/>
    <path opacity="0.5" d="M 15.35 14.18 L 17.95 17.35 A 8 8 0 0 1 8.87 19.36 L 12.21 15.99 Z"/>
    <path opacity="0.65" d="M 11.79 15.99 L 10.34 19.83 A 8 8 0 0 1 4.06 12.97 L 8.65 14.18 Z"/>
    <path opacity="0.5" d="M 8.44 13.82 L 4.39 14.47 A 8 8 0 0 1 7.19 5.61 L 8.44 10.18 Z"/>
    <path opacity="0.65" d="M 8.65 9.82 L 6.05 6.65 A 8 8 0 0 1 15.13 4.64 L 11.79 8.01 Z"/>
    <circle opacity="0.4" cx="13.5" cy="9.8" r="0.9"/>
    <circle opacity="0.5" cx="10.5" cy="13" r="0.5"/>
  </g>

  <!-- SAGAN wordmark -->
  <text x="280" y="310" font-family="Inter, system-ui, -apple-system, sans-serif" font-size="72" font-weight="700" letter-spacing="16" fill="#ffffff">
    <tspan fill="#7b7bf0">S</tspan>AGAN
  </text>

  <!-- Tagline -->
  <text x="280" y="370" font-family="Inter, system-ui, -apple-system, sans-serif" font-size="28" font-weight="400" fill="#a0a0c0">
    What your metadata reveals about your life
  </text>

  <!-- Feature pills -->
  <g transform="translate(280, 420)">
    <rect x="0" y="0" width="160" height="36" rx="18" fill="#ffffff" fill-opacity="0.08" stroke="#ffffff" stroke-opacity="0.12" stroke-width="1"/>
    <text x="80" y="24" font-family="Inter, system-ui, sans-serif" font-size="14" font-weight="500" fill="#c0c0e0" text-anchor="middle">100% Private</text>

    <rect x="180" y="0" width="180" height="36" rx="18" fill="#ffffff" fill-opacity="0.08" stroke="#ffffff" stroke-opacity="0.12" stroke-width="1"/>
    <text x="270" y="24" font-family="Inter, system-ui, sans-serif" font-size="14" font-weight="500" fill="#c0c0e0" text-anchor="middle">Runs in Browser</text>

    <rect x="380" y="0" width="180" height="36" rx="18" fill="#ffffff" fill-opacity="0.08" stroke="#ffffff" stroke-opacity="0.12" stroke-width="1"/>
    <text x="470" y="24" font-family="Inter, system-ui, sans-serif" font-size="14" font-weight="500" fill="#c0c0e0" text-anchor="middle">Metadata Only</text>
  </g>

  <!-- Bottom domain -->
  <text x="600" y="580" font-family="Inter, system-ui, sans-serif" font-size="18" font-weight="400" fill="#606080" text-anchor="middle">
    Privacy-first metadata analysis tool
  </text>
</svg>
