<svg xmlns="http://www.w3.org/2000/svg" width="1200" height="630" viewBox="0 0 1200 630">
  <defs>
    <linearGradient id="bg" x1="0" y1="0" x2="1" y2="1">
      <stop offset="0%" stop-color="#0f0f23"/>
      <stop offset="100%" stop-color="#1a1a3e"/>
    </linearGradient>
    <linearGradient id="accent" x1="0" y1="0" x2="1" y2="0">
      <stop offset="0%" stop-color="#4a4abf"/>
      <stop offset="100%" stop-color="#6b6bf0"/>
    </linearGradient>
  </defs>

  <!-- Background -->
  <rect width="1200" height="630" fill="url(#bg)"/>

  <!-- Subtle grid pattern -->
  <g opacity="0.04" stroke="#ffffff" stroke-width="1">
    <line x1="0" y1="0" x2="0" y2="630" transform="translate(100,0)" />
    <line x1="0" y1="0" x2="0" y2="630" transform="translate(200,0)" />
    <line x1="0" y1="0" x2="0" y2="630" transform="translate(300,0)" />
    <line x1="0" y1="0" x2="0" y2="630" transform="translate(400,0)" />
    <line x1="0" y1="0" x2="0" y2="630" transform="translate(500,0)" />
    <line x1="0" y1="0" x2="0" y2="630" transform="translate(600,0)" />
    <line x1="0" y1="0" x2="0" y2="630" transform="translate(700,0)" />
    <line x1="0" y1="0" x2="0" y2="630" transform="translate(800,0)" />
    <line x1="0" y1="0" x2="0" y2="630" transform="translate(900,0)" />
    <line x1="0" y1="0" x2="0" y2="630" transform="translate(1000,0)" />
    <line x1="0" y1="0" x2="0" y2="630" transform="translate(1100,0)" />
    <line x1="0" y1="0" x2="1200" y2="0" transform="translate(0,100)" />
    <line x1="0" y1="0" x2="1200" y2="0" transform="translate(0,200)" />
    <line x1="0" y1="0" x2="1200" y2="0" transform="translate(0,300)" />
    <line x1="0" y1="0" x2="1200" y2="0" transform="translate(0,400)" />
    <line x1="0" y1="0" x2="1200" y2="0" transform="translate(0,500)" />
  </g>

  <!-- Accent line at top -->
  <rect x="0" y="0" width="1200" height="4" fill="url(#accent)"/>

  <!-- Signal bars logo (scaled up from 28x22 viewBox) -->
  <g transform="translate(80, 200) scale(5)" fill="#7b7bf0">
    <!-- Bar 1: solid -->
    <circle cx="2.0" cy="13.2" r="0.95" opacity="0.95"/>
    <circle cx="4.0" cy="13.0" r="0.85" opacity="0.90"/>
    <circle cx="6.0" cy="13.3" r="0.90" opacity="0.92"/>
    <circle cx="2.1" cy="15.1" r="0.80" opacity="0.88"/>
    <circle cx="4.0" cy="15.0" r="0.95" opacity="0.95"/>
    <circle cx="5.9" cy="15.2" r="0.85" opacity="0.90"/>
    <circle cx="2.0" cy="17.0" r="0.90" opacity="0.92"/>
    <circle cx="4.1" cy="17.1" r="0.85" opacity="0.95"/>
    <circle cx="6.0" cy="16.9" r="0.95" opacity="0.88"/>
    <circle cx="1.9" cy="19.0" r="0.85" opacity="0.90"/>
    <circle cx="4.0" cy="19.1" r="0.90" opacity="0.95"/>
    <circle cx="6.1" cy="19.0" r="0.95" opacity="0.92"/>
    <!-- Bar 2: mostly formed -->
    <circle cx="9.0" cy="9.1" r="0.70" opacity="0.68"/>
    <circle cx="13.0" cy="9.3" r="0.65" opacity="0.65"/>
    <circle cx="9.1" cy="11.0" r="0.80" opacity="0.75"/>
    <circle cx="11.0" cy="11.2" r="0.75" opacity="0.72"/>
    <circle cx="13.0" cy="11.0" r="0.85" opacity="0.80"/>
    <circle cx="8.9" cy="13.1" r="0.85" opacity="0.78"/>
    <circle cx="11.1" cy="13.0" r="0.90" opacity="0.82"/>
    <circle cx="9.0" cy="15.0" r="0.80" opacity="0.80"/>
    <circle cx="11.0" cy="15.1" r="0.85" opacity="0.85"/>
    <circle cx="12.9" cy="14.9" r="0.75" opacity="0.78"/>
    <circle cx="9.1" cy="17.0" r="0.90" opacity="0.82"/>
    <circle cx="11.0" cy="17.1" r="0.80" opacity="0.85"/>
    <circle cx="13.0" cy="17.0" r="0.85" opacity="0.80"/>
    <circle cx="9.0" cy="19.0" r="0.85" opacity="0.85"/>
    <circle cx="10.9" cy="19.1" r="0.90" opacity="0.82"/>
    <circle cx="13.1" cy="19.0" r="0.80" opacity="0.78"/>
    <!-- Bar 3: partially dissolving -->
    <circle cx="18.0" cy="5.3" r="0.60" opacity="0.52"/>
    <circle cx="16.1" cy="5.1" r="0.50" opacity="0.45"/>
    <circle cx="17.9" cy="7.2" r="0.65" opacity="0.58"/>
    <circle cx="20.1" cy="7.0" r="0.55" opacity="0.50"/>
    <circle cx="16.0" cy="9.0" r="0.60" opacity="0.55"/>
    <circle cx="18.0" cy="9.1" r="0.70" opacity="0.62"/>
    <circle cx="20.0" cy="9.2" r="0.55" opacity="0.48"/>
    <circle cx="16.1" cy="11.0" r="0.75" opacity="0.65"/>
    <circle cx="18.1" cy="11.1" r="0.65" opacity="0.60"/>
    <circle cx="20.0" cy="11.2" r="0.60" opacity="0.55"/>
    <circle cx="16.0" cy="13.0" r="0.80" opacity="0.68"/>
    <circle cx="18.1" cy="13.1" r="0.70" opacity="0.72"/>
    <circle cx="20.0" cy="12.9" r="0.65" opacity="0.58"/>
    <circle cx="16.0" cy="15.0" r="0.75" opacity="0.70"/>
    <circle cx="18.0" cy="15.2" r="0.80" opacity="0.65"/>
    <circle cx="20.0" cy="14.9" r="0.70" opacity="0.58"/>
    <circle cx="16.1" cy="17.0" r="0.80" opacity="0.68"/>
    <circle cx="18.0" cy="17.1" r="0.75" opacity="0.65"/>
    <circle cx="20.1" cy="17.0" r="0.70" opacity="0.60"/>
    <circle cx="16.1" cy="19.0" r="0.80" opacity="0.72"/>
    <circle cx="18.0" cy="19.0" r="0.75" opacity="0.65"/>
    <circle cx="19.9" cy="19.1" r="0.70" opacity="0.60"/>
    <!-- Bar 4: faint but recognizable -->
    <circle cx="25.0" cy="1.3" r="0.50" opacity="0.25"/>
    <circle cx="24.9" cy="3.2" r="0.55" opacity="0.30"/>
    <circle cx="23.1" cy="3.0" r="0.45" opacity="0.22"/>
    <circle cx="27.1" cy="5.1" r="0.45" opacity="0.25"/>
    <circle cx="23.0" cy="7.0" r="0.55" opacity="0.32"/>
    <circle cx="25.0" cy="7.1" r="0.50" opacity="0.28"/>
    <circle cx="25.1" cy="9.2" r="0.50" opacity="0.30"/>
    <circle cx="27.0" cy="9.0" r="0.45" opacity="0.25"/>
    <circle cx="23.0" cy="11.0" r="0.55" opacity="0.35"/>
    <circle cx="25.0" cy="11.0" r="0.50" opacity="0.32"/>
    <circle cx="23.1" cy="13.1" r="0.60" opacity="0.38"/>
    <circle cx="25.0" cy="13.0" r="0.50" opacity="0.32"/>
    <circle cx="27.0" cy="13.2" r="0.45" opacity="0.28"/>
    <circle cx="27.0" cy="15.0" r="0.50" opacity="0.30"/>
    <circle cx="23.0" cy="15.1" r="0.55" opacity="0.35"/>
    <circle cx="23.0" cy="17.0" r="0.60" opacity="0.40"/>
    <circle cx="25.1" cy="17.1" r="0.55" opacity="0.35"/>
    <circle cx="27.0" cy="17.1" r="0.50" opacity="0.30"/>
    <circle cx="23.0" cy="19.0" r="0.60" opacity="0.42"/>
    <circle cx="25.1" cy="19.1" r="0.65" opacity="0.38"/>
    <circle cx="27.0" cy="19.0" r="0.55" opacity="0.35"/>
  </g>

  <!-- SAGAN wordmark -->
  <text x="280" y="310" font-family="Inter, system-ui, -apple-system, sans-serif" font-size="72" font-weight="700" letter-spacing="16" fill="#ffffff">
    <tspan fill="#7b7bf0">S</tspan>AGAN
  </text>

  <!-- Tagline -->
  <text x="280" y="370" font-family="Inter, system-ui, -apple-system, sans-serif" font-size="28" font-weight="400" fill="#a0a0c0">
    What your metadata reveals about your life
  </text>

  <!-- Feature pills -->
  <g transform="translate(280, 420)">
    <rect x="0" y="0" width="160" height="36" rx="18" fill="#ffffff" fill-opacity="0.08" stroke="#ffffff" stroke-opacity="0.12" stroke-width="1"/>
    <text x="80" y="24" font-family="Inter, system-ui, sans-serif" font-size="14" font-weight="500" fill="#c0c0e0" text-anchor="middle">100% Private</text>

    <rect x="180" y="0" width="180" height="36" rx="18" fill="#ffffff" fill-opacity="0.08" stroke="#ffffff" stroke-opacity="0.12" stroke-width="1"/>
    <text x="270" y="24" font-family="Inter, system-ui, sans-serif" font-size="14" font-weight="500" fill="#c0c0e0" text-anchor="middle">Runs in Browser</text>

    <rect x="380" y="0" width="180" height="36" rx="18" fill="#ffffff" fill-opacity="0.08" stroke="#ffffff" stroke-opacity="0.12" stroke-width="1"/>
    <text x="470" y="24" font-family="Inter, system-ui, sans-serif" font-size="14" font-weight="500" fill="#c0c0e0" text-anchor="middle">Metadata Only</text>
  </g>

  <!-- Bottom domain -->
  <text x="600" y="580" font-family="Inter, system-ui, sans-serif" font-size="18" font-weight="400" fill="#606080" text-anchor="middle">
    Privacy-first metadata analysis tool
  </text>
</svg>
